<?xml version="1.0" encoding="UTF-8"?>
<svg width="32px" height="24px" viewBox="0 0 32 24" version="1.1" xmlns="http://www.w3.org/2000/svg">
  <title>Flag of the United Kingdom</title>
  <g>
    <rect fill="#012169" x="0" y="0" width="32" height="24"></rect>
    <path d="M32,0 L32,2.6 L20.1,12 L32,12 L32,0 Z M0,0 L11.9,8.9 L0,8.9 L0,0 Z M0,24 L0,21.4 L11.9,12 L0,12 L0,24 Z M32,24 L32,15.1 L20.1,15.1 L32,24 Z" fill="#FFFFFF"></path>
    <path d="M21.3,13.7 L32,21.3 L32,24 L18.7,24 L18.7,13.7 L21.3,13.7 Z M10.7,13.7 L10.7,24 L0,24 L0,15.1 L10.7,13.7 Z M10.7,10.3 L0,2.7 L0,0 L13.3,0 L13.3,10.3 L10.7,10.3 Z M21.3,10.3 L21.3,0 L32,0 L32,8.9 L21.3,10.3 Z" fill="#C8102E"></path>
    <rect fill="#FFFFFF" x="13.3" y="0" width="5.3" height="24"></rect>
    <rect fill="#FFFFFF" x="0" y="9.3" width="32" height="5.3"></rect>
    <rect fill="#C8102E" x="14.7" y="0" width="2.7" height="24"></rect>
    <rect fill="#C8102E" x="0" y="10.7" width="32" height="2.7"></rect>
  </g>
</svg>